<svg xmlns="http://www.w3.org/2000/svg" xmlns:xlink="http://www.w3.org/1999/xlink" width="240" zoomAndPan="magnify" viewBox="0 0 180 113.249998" height="151" preserveAspectRatio="xMidYMid meet" version="1.0"><path fill="#ffffff" d="M 57.246094 45.347656 C 56.847656 43.515625 55.535156 36.417969 59.628906 29.363281 C 65.449219 19.332031 76.984375 18.375 77.996094 18.308594 C 78.769531 16.550781 80.167969 14.007812 82.679688 11.761719 C 84.664062 9.988281 87.765625 8.023438 96.761719 6.640625 C 103.578125 5.59375 109.769531 4.644531 118.164062 6.09375 C 127.304688 7.671875 134.085938 11.242188 138.023438 13.71875 C 137.265625 13.550781 134.71875 13.097656 132.414062 14.570312 C 131.746094 14.992188 131.25 15.484375 130.882812 15.929688 C 133.5625 17.800781 137.246094 20.84375 140.574219 25.453125 C 145.132812 31.757812 146.839844 37.964844 147.546875 41.609375 C 147.050781 40.820312 145.953125 39.308594 143.976562 38.207031 C 142.488281 37.375 141.097656 37.109375 140.234375 37.015625 C 142.0625 39.652344 143.296875 42.203125 144.148438 44.5 C 150.257812 61.015625 141.199219 77.371094 138.703125 81.570312 C 138.363281 80.097656 137.96875 78.5625 137.515625 76.980469 C 136.925781 74.929688 136.292969 73 135.644531 71.199219 C 134.570312 75.753906 131.671875 85.097656 123.398438 93.136719 C 108.265625 107.84375 87.953125 105.738281 84.96875 105.378906 C 89.1875 105.40625 102.453125 104.941406 113.707031 95.175781 C 116.40625 92.835938 121.925781 87.921875 124.589844 79.53125 C 128.261719 67.976562 124.695312 55.570312 117.789062 47.390625 C 112.050781 40.59375 105.171875 38.089844 99.421875 35.996094 C 97.796875 35.402344 86.4375 31.414062 73.0625 33.785156 C 66.84375 34.886719 63.789062 36.726562 61.667969 38.71875 C 59.210938 41.023438 57.925781 43.617188 57.246094 45.347656 Z M 57.246094 45.347656 " fill-opacity="1" fill-rule="nonzero"/><path fill="#00bf63" d="M 71.628906 102.433594 C 74.421875 103.285156 77.332031 103.699219 80.25 103.71875 L 85.257812 103.75 C 91.261719 103.75 102.804688 102.476562 112.636719 93.945312 C 114.976562 91.914062 120.453125 87.164062 123.035156 79.035156 C 126.246094 68.925781 123.695312 56.917969 116.539062 48.441406 C 111.085938 41.980469 104.59375 39.613281 98.863281 37.527344 C 97.023438 36.859375 90.34375 34.671875 81.707031 34.671875 C 78.855469 34.671875 76.042969 34.914062 73.347656 35.390625 C 69.464844 36.078125 66.96875 37.058594 65.246094 38.066406 C 71.964844 37.039062 80.761719 36.761719 90.40625 39.394531 C 97 41.195312 104.730469 43.308594 110.984375 50.449219 C 113.230469 53.015625 121.035156 62.792969 118.636719 74.769531 C 116.339844 86.25 105.527344 95.472656 91.769531 97.214844 C 94.242188 96.75 102.488281 94.875 107.753906 87.523438 C 114.042969 78.738281 113.511719 65.726562 106.054688 55.382812 C 108.546875 63.523438 106.753906 69.058594 105.882812 71.195312 C 101.425781 82.167969 86.691406 89.042969 69.566406 86.527344 C 73.09375 86.988281 82.058594 87.445312 90.238281 81.398438 C 97.335938 76.15625 99.734375 69.046875 100.441406 66.605469 C 97.847656 69.027344 90.964844 74.800781 80.375 76.46875 C 79.445312 76.613281 64.980469 78.679688 52.996094 70.175781 C 39.570312 60.652344 33.882812 41.140625 39.5625 21.878906 C 37.207031 26.265625 34.039062 33.453125 32.929688 42.796875 C 29.753906 69.535156 45.683594 94.554688 71.582031 102.421875 C 71.597656 102.425781 71.613281 102.429688 71.628906 102.433594 Z M 71.628906 102.433594 " fill-opacity="1" fill-rule="nonzero"/></svg>