<svg xmlns="http://www.w3.org/2000/svg" xmlns:xlink="http://www.w3.org/1999/xlink" width="180" zoomAndPan="magnify" viewBox="0 0 135 60" height="80" preserveAspectRatio="xMidYMid meet" version="1.0"><defs><g/><clipPath id="bdefebad61"><path d="M 20 8.183594 L 59 8.183594 L 59 51 L 20 51 Z M 20 8.183594 " clip-rule="nonzero"/></clipPath></defs><g clip-path="url(#bdefebad61)"><path fill="#ffffff" d="M 20.230469 25.390625 C 20.0625 24.617188 19.503906 21.617188 21.234375 18.632812 C 23.695312 14.394531 28.570312 13.992188 28.996094 13.964844 C 29.324219 13.21875 29.917969 12.144531 30.980469 11.195312 C 31.816406 10.445312 33.128906 9.617188 36.929688 9.03125 C 39.8125 8.589844 42.425781 8.1875 45.976562 8.800781 C 49.839844 9.46875 52.703125 10.976562 54.371094 12.023438 C 54.046875 11.953125 52.972656 11.757812 51.996094 12.382812 C 51.714844 12.5625 51.503906 12.769531 51.351562 12.957031 C 52.484375 13.746094 54.039062 15.035156 55.449219 16.980469 C 57.375 19.648438 58.09375 22.269531 58.394531 23.808594 C 58.183594 23.476562 57.71875 22.835938 56.886719 22.371094 C 56.253906 22.019531 55.667969 21.910156 55.304688 21.867188 C 56.074219 22.984375 56.597656 24.0625 56.957031 25.03125 C 59.539062 32.011719 55.710938 38.925781 54.65625 40.699219 C 54.511719 40.078125 54.347656 39.429688 54.152344 38.757812 C 53.90625 37.894531 53.636719 37.078125 53.363281 36.316406 C 52.910156 38.242188 51.683594 42.191406 48.1875 45.585938 C 41.792969 51.804688 33.207031 50.914062 31.945312 50.761719 C 33.726562 50.773438 39.335938 50.578125 44.089844 46.449219 C 45.230469 45.460938 47.566406 43.382812 48.691406 39.835938 C 50.242188 34.953125 48.734375 29.710938 45.816406 26.253906 C 43.390625 23.382812 40.484375 22.324219 38.054688 21.4375 C 37.367188 21.1875 32.566406 19.5 26.914062 20.503906 C 24.285156 20.96875 22.996094 21.746094 22.097656 22.589844 C 21.058594 23.5625 20.515625 24.660156 20.230469 25.390625 Z M 20.230469 25.390625 " fill-opacity="1" fill-rule="nonzero"/></g><path fill="#ffffff" d="M 26.308594 49.519531 C 27.488281 49.875 28.71875 50.050781 29.953125 50.058594 L 32.066406 50.074219 C 34.605469 50.074219 39.484375 49.535156 43.640625 45.929688 C 44.628906 45.070312 46.941406 43.0625 48.035156 39.628906 C 49.390625 35.355469 48.3125 30.28125 45.289062 26.699219 C 42.984375 23.964844 40.238281 22.96875 37.816406 22.085938 C 37.039062 21.800781 34.21875 20.878906 30.566406 20.878906 C 29.363281 20.878906 28.171875 20.980469 27.035156 21.183594 C 25.394531 21.472656 24.339844 21.886719 23.609375 22.3125 C 26.449219 21.878906 30.167969 21.761719 34.246094 22.875 C 37.03125 23.636719 40.296875 24.527344 42.941406 27.546875 C 43.890625 28.632812 47.1875 32.761719 46.175781 37.824219 C 45.203125 42.675781 40.632812 46.574219 34.820312 47.3125 C 35.863281 47.113281 39.351562 46.324219 41.574219 43.214844 C 44.234375 39.503906 44.007812 34.003906 40.855469 29.632812 C 41.910156 33.074219 41.152344 35.410156 40.785156 36.316406 C 38.898438 40.953125 32.671875 43.855469 25.4375 42.796875 C 26.925781 42.988281 30.714844 43.183594 34.171875 40.628906 C 37.171875 38.410156 38.1875 35.40625 38.484375 34.375 C 37.386719 35.398438 34.480469 37.839844 30.003906 38.542969 C 29.609375 38.605469 23.496094 39.476562 18.433594 35.882812 C 12.757812 31.859375 10.355469 23.613281 12.753906 15.472656 C 11.757812 17.324219 10.421875 20.363281 9.953125 24.3125 C 8.609375 35.613281 15.339844 46.1875 26.289062 49.511719 C 26.292969 49.515625 26.300781 49.515625 26.308594 49.519531 Z M 26.308594 49.519531 " fill-opacity="1" fill-rule="nonzero"/><g fill="#ffffff" fill-opacity="1"><g transform="translate(63.802511, 39.400344)"><g><path d="M 0.824219 0 L 3.367188 0 L 3.367188 -14.410156 L 0.824219 -14.410156 Z M 0.824219 0 "/></g></g></g><g fill="#ffffff" fill-opacity="1"><g transform="translate(67.99177, 39.400344)"><g><path d="M 8.445312 0 L 10.984375 0 L 10.984375 -12.285156 C 10.984375 -13.648438 10.21875 -14.410156 8.859375 -14.410156 L 0.824219 -14.410156 L 0.824219 -11.871094 L 8.445312 -11.871094 Z M 0.824219 0 L 3.367188 0 L 3.367188 -11.027344 L 0.824219 -11.027344 Z M 0.824219 0 "/></g></g></g><g fill="#ffffff" fill-opacity="1"><g transform="translate(79.795984, 39.400344)"><g><path d="M 0.824219 -12.285156 L 0.824219 0 L 3.367188 0 L 3.367188 -11.871094 L 10.984375 -11.871094 L 10.984375 -14.410156 L 2.933594 -14.410156 C 1.570312 -14.410156 0.824219 -13.648438 0.824219 -12.285156 Z M 4.210938 -5.945312 L 10.984375 -5.945312 L 10.984375 -8.484375 L 4.210938 -8.484375 Z M 4.210938 -5.945312 "/></g></g></g><g fill="#ffffff" fill-opacity="1"><g transform="translate(91.600198, 39.400344)"><g><path d="M 0.824219 0 L 3.367188 0 L 3.367188 -14.410156 L 0.824219 -14.410156 Z M 0.824219 0 "/></g></g></g><g fill="#ffffff" fill-opacity="1"><g transform="translate(95.789456, 39.400344)"><g><path d="M 8.445312 0 L 10.984375 0 L 10.984375 -12.285156 C 10.984375 -13.648438 10.21875 -14.410156 8.859375 -14.410156 L 0.824219 -14.410156 L 0.824219 -11.871094 L 8.445312 -11.871094 Z M 0.824219 0 L 3.367188 0 L 3.367188 -11.027344 L 0.824219 -11.027344 Z M 0.824219 0 "/></g></g></g><g fill="#ffffff" fill-opacity="1"><g transform="translate(107.59367, 39.400344)"><g><path d="M 0.824219 0 L 3.367188 0 L 3.367188 -14.410156 L 0.824219 -14.410156 Z M 0.824219 0 "/></g></g></g><g fill="#ffffff" fill-opacity="1"><g transform="translate(111.782928, 39.400344)"><g><path d="M 8.445312 0 L 10.984375 0 L 10.984375 -6.359375 C 10.984375 -7.722656 10.21875 -8.484375 8.859375 -8.484375 L 3.367188 -8.484375 L 3.367188 -14.410156 L 0.824219 -14.410156 L 0.824219 -8.050781 C 0.824219 -6.691406 1.570312 -5.945312 2.933594 -5.945312 L 8.445312 -5.945312 Z M 0.824219 0 L 3.367188 0 L 4.191406 -5.101562 L 1.652344 -5.101562 Z M 7.617188 -9.332031 L 10.160156 -9.332031 L 10.984375 -14.410156 L 8.445312 -14.410156 Z M 7.617188 -9.332031 "/></g></g></g></svg>