<svg xmlns="http://www.w3.org/2000/svg" xmlns:xlink="http://www.w3.org/1999/xlink" width="80" zoomAndPan="magnify" viewBox="0 0 60 60" height="80" preserveAspectRatio="xMidYMid meet" version="1.0"><defs><clipPath id="407f9b31ba"><path d="M 23 44 L 28 44 L 28 50.722656 L 23 50.722656 Z M 23 44 " clip-rule="nonzero"/></clipPath><clipPath id="643fea4f5a"><path d="M 18 13.222656 L 58.074219 13.222656 L 58.074219 35 L 18 35 Z M 18 13.222656 " clip-rule="nonzero"/></clipPath><clipPath id="216d619dc0"><path d="M 1.824219 15 L 51 15 L 51 49 L 1.824219 49 Z M 1.824219 15 " clip-rule="nonzero"/></clipPath></defs><g clip-path="url(#407f9b31ba)"><path fill="#ffffff" d="M 27.226562 45.003906 C 26.59375 44.65625 25.796875 44.890625 25.480469 45.496094 L 23.753906 48.6875 C 23.433594 49.296875 23.707031 50.070312 24.335938 50.433594 C 24.96875 50.816406 25.777344 50.605469 26.101562 49.980469 L 27.84375 46.753906 C 28.160156 46.136719 27.871094 45.355469 27.226562 45.003906 Z M 27.226562 45.003906 " fill-opacity="1" fill-rule="nonzero"/></g><path fill="#ffffff" d="M 23.074219 42.492188 C 22.359375 42.105469 21.460938 42.367188 21.113281 43.050781 L 19.265625 46.507812 C 18.910156 47.195312 19.222656 48.054688 19.929688 48.472656 C 20.640625 48.898438 21.546875 48.65625 21.90625 47.957031 L 23.753906 44.457031 C 24.117188 43.761719 23.789062 42.894531 23.074219 42.492188 Z M 23.074219 42.492188 " fill-opacity="1" fill-rule="nonzero"/><path fill="#ffffff" d="M 18.351562 40.246094 C 17.589844 39.859375 16.65625 40.15625 16.304688 40.878906 L 14.46875 44.546875 C 14.105469 45.273438 14.460938 46.167969 15.210938 46.574219 C 15.972656 47 16.921875 46.71875 17.28125 45.984375 L 19.128906 42.277344 C 19.484375 41.546875 19.117188 40.640625 18.351562 40.246094 Z M 18.351562 40.246094 " fill-opacity="1" fill-rule="nonzero"/><path fill="#ffffff" d="M 5.320312 38 L 4.585938 38.609375 C 3.953125 39.148438 3.925781 40.128906 4.46875 40.816406 C 5.003906 41.527344 6.003906 41.648438 6.640625 41.097656 L 8.125 39.863281 Z M 5.320312 38 " fill-opacity="1" fill-rule="nonzero"/><g clip-path="url(#643fea4f5a)"><path fill="#ffffff" d="M 20.960938 18.511719 C 20.960938 18.511719 23.246094 16.703125 25.414062 14.425781 C 25.414062 14.425781 26.164062 13.734375 27.378906 13.628906 C 28.601562 13.519531 33.429688 13.253906 37.097656 15.003906 C 37.097656 15.003906 38.367188 15.59375 40.171875 16.757812 C 40.171875 16.757812 43.992188 18.671875 46.0625 18.246094 L 53.015625 16.4375 L 58.109375 31.40625 L 52.324219 34.273438 C 52.324219 34.273438 52.109375 33.480469 50.890625 32.574219 L 37.839844 22.96875 C 37.839844 22.96875 32.050781 18.777344 28.757812 18.882812 C 28.757812 18.882812 27.644531 18.667969 26.691406 19.730469 C 25.734375 20.792969 21.914062 24.773438 18.625 23.601562 C 18.625 23.601562 21.117188 23.019531 22.976562 20.578125 C 22.976562 20.578125 23.351562 19.890625 20.960938 18.511719 Z M 20.960938 18.511719 " fill-opacity="1" fill-rule="nonzero"/></g><path fill="#ffffff" d="M 16.398438 22.121094 L 19.902344 19.359375 C 19.902344 19.359375 20.800781 19.730469 21.332031 20.367188 C 21.332031 20.367188 18.941406 23.179688 16.398438 22.121094 Z M 16.398438 22.121094 " fill-opacity="1" fill-rule="nonzero"/><g clip-path="url(#216d619dc0)"><path fill="#ffffff" d="M 1.882812 34.40625 L 4.746094 18.089844 C 4.746094 18.089844 9.074219 19.945312 11.722656 18.566406 C 11.722656 18.566406 16.5 15.484375 18.890625 15.59375 L 21.4375 15.910156 C 21.4375 15.910156 20.21875 17.238281 18.570312 18.191406 C 16.925781 19.144531 15.019531 20.953125 14.222656 21.746094 C 14.222656 21.746094 13.476562 22.546875 14.164062 23.285156 C 14.855469 24.027344 17.300781 26.046875 19.738281 25.992188 C 22.179688 25.941406 25.414062 24.457031 28.179688 21.160156 C 28.179688 21.160156 28.65625 20.792969 30.355469 21.324219 C 32.050781 21.851562 34.226562 22.867188 35.976562 24.296875 C 37.234375 25.324219 48.128906 33.15625 49.777344 34.59375 C 51.421875 36.023438 50.414062 37.40625 50.414062 37.40625 C 50.414062 37.40625 49.511719 39.101562 47.65625 37.933594 C 45.796875 36.769531 36.511719 30.769531 36.511719 30.769531 C 36.511719 30.769531 35.453125 30.078125 34.867188 30.925781 C 34.867188 30.925781 34.015625 31.886719 35.132812 32.625 L 45.480469 39.367188 C 45.480469 39.367188 46.808594 40.324219 45.742188 41.703125 C 44.683594 43.085938 43.835938 42.710938 43.460938 42.496094 C 43.09375 42.289062 32.582031 35.492188 32.582031 35.492188 C 32.582031 35.492188 31.683594 34.960938 31.152344 35.8125 C 30.617188 36.660156 31.3125 37.457031 31.3125 37.457031 L 40.066406 43.085938 C 40.066406 43.085938 41.234375 44.144531 40.433594 45.257812 C 39.640625 46.375 39.007812 46.476562 38.15625 45.898438 C 37.308594 45.308594 27.699219 39.207031 27.699219 39.207031 C 27.699219 39.207031 26.796875 38.519531 26.210938 39.476562 C 26.210938 39.476562 25.414062 40.269531 26.582031 41.175781 C 27.75 42.074219 33.378906 45.6875 33.378906 45.6875 C 33.378906 45.6875 34.652344 46.324219 33.804688 47.703125 C 32.953125 49.082031 31.890625 48.550781 31.574219 48.445312 C 31.253906 48.339844 29.402344 47.542969 29.402344 47.542969 C 29.402344 47.542969 31.152344 45.101562 28.5 43.351562 C 28.5 43.351562 27.328125 42.445312 25.792969 43.03125 C 25.792969 43.03125 25.578125 41.757812 23.933594 40.804688 C 23.933594 40.804688 22.550781 40.058594 20.960938 40.804688 C 20.960938 40.804688 20.90625 39.265625 18.839844 38.359375 C 18.839844 38.359375 16.558594 37.515625 15.019531 39.425781 L 13.792969 41.914062 Z M 1.882812 34.40625 " fill-opacity="1" fill-rule="nonzero"/></g></svg>