<svg xmlns="http://www.w3.org/2000/svg" xmlns:xlink="http://www.w3.org/1999/xlink" width="80" zoomAndPan="magnify" viewBox="0 0 60 60" height="80" preserveAspectRatio="xMidYMid meet" version="1.0"><defs><clipPath id="9da4cb14cd"><path d="M 23 3.355469 L 57.246094 3.355469 L 57.246094 38 L 23 38 Z M 23 3.355469 " clip-rule="nonzero"/></clipPath><clipPath id="149138ebd9"><path d="M 4 22 L 39 22 L 39 56.605469 L 4 56.605469 Z M 4 22 " clip-rule="nonzero"/></clipPath></defs><g clip-path="url(#9da4cb14cd)"><path fill="#ffffff" d="M 39.523438 3.359375 C 34.714844 3.359375 30.203125 5.226562 26.8125 8.617188 L 24.1875 11.242188 C 23.558594 11.871094 23.214844 12.707031 23.214844 13.597656 C 23.214844 14.488281 23.558594 15.324219 24.1875 15.949219 C 25.449219 17.210938 27.640625 17.210938 28.898438 15.949219 L 31.523438 13.328125 C 35.933594 8.917969 43.109375 8.921875 47.523438 13.328125 C 49.660156 15.46875 50.839844 18.308594 50.839844 21.328125 C 50.839844 24.347656 49.660156 27.1875 47.519531 29.328125 L 44.898438 31.953125 C 44.269531 32.582031 43.921875 33.417969 43.921875 34.304688 C 43.921875 35.199219 44.269531 36.035156 44.898438 36.660156 C 45.527344 37.289062 46.363281 37.636719 47.253906 37.636719 C 48.144531 37.636719 48.980469 37.289062 49.609375 36.660156 L 52.230469 34.039062 C 55.628906 30.640625 57.5 26.125 57.5 21.328125 C 57.5 16.53125 55.628906 12.015625 52.230469 8.617188 C 48.84375 5.226562 44.328125 3.359375 39.523438 3.359375 Z M 39.523438 3.359375 " fill-opacity="1" fill-rule="nonzero"/></g><g clip-path="url(#149138ebd9)"><path fill="#ffffff" d="M 22.179688 56.632812 C 26.988281 56.632812 31.5 54.769531 34.894531 51.378906 L 37.515625 48.753906 C 38.144531 48.125 38.488281 47.289062 38.488281 46.398438 C 38.488281 45.507812 38.144531 44.671875 37.515625 44.046875 C 36.253906 42.785156 34.0625 42.789062 32.804688 44.046875 L 30.183594 46.667969 C 25.773438 51.078125 18.59375 51.082031 14.179688 46.667969 C 9.769531 42.257812 9.769531 35.078125 14.179688 30.667969 L 16.804688 28.042969 C 18.101562 26.746094 18.101562 24.632812 16.804688 23.335938 C 15.507812 22.035156 13.394531 22.035156 12.09375 23.335938 L 9.472656 25.957031 C 2.464844 32.964844 2.464844 44.371094 9.472656 51.378906 C 12.859375 54.769531 17.375 56.632812 22.179688 56.632812 Z M 22.179688 56.632812 " fill-opacity="1" fill-rule="nonzero"/></g><path fill="#ffffff" d="M 19.542969 41.308594 C 20.171875 41.9375 21.007812 42.285156 21.898438 42.285156 C 22.789062 42.285156 23.625 41.9375 24.253906 41.308594 L 42.160156 23.398438 C 42.789062 22.769531 43.136719 21.933594 43.136719 21.042969 C 43.136719 20.152344 42.789062 19.316406 42.160156 18.6875 C 40.902344 17.429688 38.707031 17.429688 37.449219 18.6875 L 19.542969 36.597656 C 18.914062 37.226562 18.566406 38.0625 18.566406 38.953125 C 18.566406 39.84375 18.914062 40.679688 19.542969 41.308594 Z M 19.542969 41.308594 " fill-opacity="1" fill-rule="nonzero"/></svg>