<svg xmlns="http://www.w3.org/2000/svg" xmlns:xlink="http://www.w3.org/1999/xlink" width="160" zoomAndPan="magnify" viewBox="0 0 120 30.000001" height="40" preserveAspectRatio="xMidYMid meet" version="1.0"><defs><g/><clipPath id="4bbcb197f1"><path d="M 26 1.066406 L 50 1.066406 L 50 27.921875 L 26 27.921875 Z M 26 1.066406 " clip-rule="nonzero"/></clipPath><clipPath id="adddd7e0e3"><path d="M 19.097656 5 L 44 5 L 44 27 L 19.097656 27 Z M 19.097656 5 " clip-rule="nonzero"/></clipPath></defs><g clip-path="url(#4bbcb197f1)"><path fill="#ffffff" d="M 26.261719 11.671875 C 26.15625 11.195312 25.8125 9.347656 26.878906 7.507812 C 28.398438 4.894531 31.402344 4.644531 31.664062 4.628906 C 31.867188 4.167969 32.230469 3.507812 32.886719 2.921875 C 33.402344 2.460938 34.210938 1.949219 36.554688 1.589844 C 38.328125 1.316406 39.941406 1.066406 42.128906 1.445312 C 44.511719 1.855469 46.277344 2.785156 47.304688 3.433594 C 47.105469 3.390625 46.441406 3.269531 45.839844 3.652344 C 45.667969 3.765625 45.539062 3.890625 45.441406 4.007812 C 46.140625 4.496094 47.101562 5.289062 47.96875 6.488281 C 49.15625 8.132812 49.601562 9.75 49.785156 10.699219 C 49.65625 10.492188 49.367188 10.097656 48.855469 9.8125 C 48.464844 9.59375 48.101562 9.527344 47.878906 9.5 C 48.355469 10.1875 48.675781 10.851562 48.898438 11.449219 C 50.488281 15.753906 48.128906 20.015625 47.480469 21.109375 C 47.390625 20.722656 47.289062 20.324219 47.171875 19.910156 C 47.015625 19.378906 46.851562 18.875 46.683594 18.40625 C 46.402344 19.59375 45.648438 22.027344 43.492188 24.121094 C 39.550781 27.953125 34.257812 27.402344 33.480469 27.308594 C 34.582031 27.316406 38.035156 27.195312 40.96875 24.652344 C 41.671875 24.042969 43.109375 22.761719 43.804688 20.578125 C 44.757812 17.566406 43.832031 14.335938 42.03125 12.203125 C 40.539062 10.433594 38.746094 9.78125 37.246094 9.234375 C 36.824219 9.082031 33.863281 8.042969 30.378906 8.660156 C 28.761719 8.945312 27.964844 9.425781 27.414062 9.945312 C 26.773438 10.546875 26.4375 11.21875 26.261719 11.671875 Z M 26.261719 11.671875 " fill-opacity="1" fill-rule="nonzero"/></g><g clip-path="url(#adddd7e0e3)"><path fill="#00bf63" d="M 30.007812 26.542969 C 30.734375 26.765625 31.492188 26.871094 32.253906 26.878906 L 33.558594 26.886719 C 35.121094 26.886719 38.128906 26.554688 40.691406 24.332031 C 41.300781 23.800781 42.726562 22.5625 43.398438 20.449219 C 44.234375 17.8125 43.570312 14.6875 41.707031 12.476562 C 40.285156 10.792969 38.59375 10.179688 37.101562 9.632812 C 36.621094 9.460938 34.882812 8.890625 32.632812 8.890625 C 31.890625 8.890625 31.15625 8.953125 30.453125 9.078125 C 29.445312 9.257812 28.792969 9.511719 28.34375 9.773438 C 30.09375 9.507812 32.386719 9.433594 34.898438 10.121094 C 36.617188 10.589844 38.628906 11.140625 40.257812 13 C 40.84375 13.667969 42.875 16.214844 42.253906 19.335938 C 41.65625 22.328125 38.835938 24.730469 35.253906 25.183594 C 35.898438 25.0625 38.046875 24.574219 39.417969 22.65625 C 41.054688 20.371094 40.917969 16.980469 38.972656 14.285156 C 39.625 16.40625 39.15625 17.847656 38.929688 18.40625 C 37.769531 21.261719 33.929688 23.054688 29.46875 22.398438 C 30.386719 22.519531 32.722656 22.636719 34.855469 21.0625 C 36.703125 19.695312 37.328125 17.84375 37.511719 17.210938 C 36.835938 17.839844 35.042969 19.34375 32.285156 19.777344 C 32.042969 19.816406 28.273438 20.355469 25.152344 18.140625 C 21.65625 15.65625 20.175781 10.574219 21.652344 5.558594 C 21.039062 6.699219 20.214844 8.574219 19.925781 11.007812 C 19.097656 17.972656 23.246094 24.488281 29.996094 26.539062 C 30 26.539062 30.003906 26.542969 30.007812 26.542969 Z M 30.007812 26.542969 " fill-opacity="1" fill-rule="nonzero"/></g><g fill="#ffffff" fill-opacity="1"><g transform="translate(53.876932, 19.178852)"><g><path d="M 0.3125 0 L 0.3125 -9.09375 L 2.078125 -9.09375 L 2.078125 0 Z M 0.3125 0 "/></g></g></g><g fill="#ffffff" fill-opacity="1"><g transform="translate(58.454916, 19.178852)"><g><path d="M 0.40625 0 L 0.40625 -9.09375 L 2.28125 -9.09375 L 3.109375 -4.75 L 3.109375 -9.09375 L 4.875 -9.09375 L 4.875 0 L 3.09375 0 L 2.1875 -4.5625 L 2.1875 0 Z M 0.40625 0 "/></g></g></g><g fill="#ffffff" fill-opacity="1"><g transform="translate(65.903411, 19.178852)"><g><path d="M 0.40625 0 L 0.40625 -9.09375 L 4.046875 -9.09375 L 4.046875 -7.328125 L 2.234375 -7.328125 L 2.234375 -5.875 L 3.953125 -5.875 L 3.953125 -4.125 L 2.234375 -4.125 L 2.234375 0 Z M 0.40625 0 "/></g></g></g><g fill="#ffffff" fill-opacity="1"><g transform="translate(72.303266, 19.178852)"><g><path d="M 0.3125 0 L 0.3125 -9.09375 L 2.078125 -9.09375 L 2.078125 0 Z M 0.3125 0 "/></g></g></g><g fill="#ffffff" fill-opacity="1"><g transform="translate(76.88125, 19.178852)"><g><path d="M 0.40625 0 L 0.40625 -9.09375 L 2.28125 -9.09375 L 3.109375 -4.75 L 3.109375 -9.09375 L 4.875 -9.09375 L 4.875 0 L 3.09375 0 L 2.1875 -4.5625 L 2.1875 0 Z M 0.40625 0 "/></g></g></g><g fill="#ffffff" fill-opacity="1"><g transform="translate(84.329745, 19.178852)"><g><path d="M 0.3125 0 L 0.3125 -9.09375 L 2.078125 -9.09375 L 2.078125 0 Z M 0.3125 0 "/></g></g></g><g fill="#ffffff" fill-opacity="1"><g transform="translate(88.90773, 19.178852)"><g><path d="M 0.140625 0 L 1.109375 -4.828125 L 0.34375 -9.109375 L 2.125 -9.109375 L 2.59375 -5.96875 L 3.015625 -9.109375 L 4.796875 -9.109375 L 4.015625 -4.828125 L 4.984375 0 L 3.140625 0 L 2.578125 -3.5625 L 1.984375 0 Z M 0.140625 0 "/></g></g></g></svg>