<svg xmlns="http://www.w3.org/2000/svg" xmlns:xlink="http://www.w3.org/1999/xlink" width="183" zoomAndPan="magnify" viewBox="0 0 137.25 30.000001" height="40" preserveAspectRatio="xMidYMid meet" version="1.0"><defs><g/><clipPath id="5bbbaf9fc3"><path d="M 33 1.015625 L 59 1.015625 L 59 29 L 33 29 Z M 33 1.015625 " clip-rule="nonzero"/></clipPath></defs><g clip-path="url(#5bbbaf9fc3)"><path fill="#ffffff" d="M 33.960938 12.0625 C 33.855469 11.566406 33.496094 9.640625 34.609375 7.726562 C 36.1875 5.003906 39.316406 4.746094 39.589844 4.726562 C 39.800781 4.25 40.179688 3.5625 40.863281 2.953125 C 41.402344 2.46875 42.242188 1.9375 44.683594 1.5625 C 46.53125 1.277344 48.210938 1.019531 50.488281 1.414062 C 52.96875 1.84375 54.808594 2.808594 55.878906 3.480469 C 55.671875 3.4375 54.980469 3.3125 54.355469 3.714844 C 54.175781 3.828125 54.039062 3.960938 53.941406 4.082031 C 54.667969 4.589844 55.667969 5.414062 56.570312 6.664062 C 57.808594 8.378906 58.269531 10.0625 58.460938 11.050781 C 58.328125 10.835938 58.03125 10.425781 57.492188 10.125 C 57.089844 9.902344 56.710938 9.828125 56.476562 9.804688 C 56.972656 10.519531 57.308594 11.210938 57.539062 11.832031 C 59.199219 16.316406 56.738281 20.753906 56.0625 21.890625 C 55.96875 21.492188 55.863281 21.074219 55.738281 20.648438 C 55.582031 20.089844 55.410156 19.566406 55.234375 19.078125 C 54.941406 20.3125 54.15625 22.847656 51.910156 25.03125 C 47.804688 29.019531 42.292969 28.449219 41.484375 28.351562 C 42.628906 28.359375 46.226562 28.234375 49.28125 25.582031 C 50.011719 24.949219 51.511719 23.617188 52.234375 21.339844 C 53.230469 18.203125 52.261719 14.835938 50.386719 12.617188 C 48.832031 10.773438 46.964844 10.09375 45.40625 9.527344 C 44.964844 9.367188 41.882812 8.285156 38.253906 8.925781 C 36.566406 9.226562 35.738281 9.726562 35.160156 10.265625 C 34.496094 10.890625 34.144531 11.59375 33.960938 12.0625 Z M 33.960938 12.0625 " fill-opacity="1" fill-rule="nonzero"/></g><path fill="#00bf63" d="M 37.863281 27.554688 C 38.621094 27.785156 39.410156 27.898438 40.203125 27.902344 L 41.5625 27.910156 C 43.191406 27.910156 46.324219 27.5625 48.988281 25.25 C 49.625 24.699219 51.109375 23.410156 51.8125 21.203125 C 52.683594 18.460938 51.992188 15.203125 50.050781 12.902344 C 48.570312 11.148438 46.808594 10.507812 45.253906 9.941406 C 44.753906 9.761719 42.941406 9.167969 40.597656 9.167969 C 39.824219 9.167969 39.0625 9.234375 38.328125 9.363281 C 37.277344 9.550781 36.597656 9.816406 36.132812 10.089844 C 37.957031 9.808594 40.339844 9.734375 42.957031 10.449219 C 44.746094 10.9375 46.84375 11.511719 48.542969 13.449219 C 49.152344 14.144531 51.269531 16.796875 50.617188 20.046875 C 49.996094 23.160156 47.0625 25.664062 43.328125 26.136719 C 44 26.011719 46.238281 25.503906 47.664062 23.507812 C 49.371094 21.125 49.226562 17.59375 47.203125 14.785156 C 47.878906 16.996094 47.394531 18.496094 47.15625 19.078125 C 45.949219 22.054688 41.949219 23.917969 37.304688 23.238281 C 38.261719 23.363281 40.695312 23.484375 42.914062 21.847656 C 44.839844 20.421875 45.488281 18.496094 45.679688 17.832031 C 44.976562 18.488281 43.109375 20.054688 40.238281 20.507812 C 39.984375 20.546875 36.058594 21.109375 32.808594 18.800781 C 29.164062 16.214844 27.621094 10.921875 29.164062 5.695312 C 28.523438 6.886719 27.664062 8.835938 27.363281 11.371094 C 26.503906 18.625 30.824219 25.414062 37.851562 27.550781 C 37.855469 27.550781 37.859375 27.550781 37.863281 27.554688 Z M 37.863281 27.554688 " fill-opacity="1" fill-rule="nonzero"/><g fill="#ffffff" fill-opacity="1"><g transform="translate(59.203916, 18.492478)"><g><path d="M 1.109375 0 L 1.109375 -8.78125 L 2.96875 -8.78125 L 2.96875 0 Z M 1.109375 0 "/></g></g></g><g fill="#ffffff" fill-opacity="1"><g transform="translate(63.271793, 18.492478)"><g><path d="M 8.890625 0 L 6.53125 0 L 2.703125 -6.640625 L 2.65625 -6.640625 C 2.726562 -5.460938 2.765625 -4.625 2.765625 -4.125 L 2.765625 0 L 1.109375 0 L 1.109375 -8.78125 L 3.453125 -8.78125 L 7.265625 -2.203125 L 7.3125 -2.203125 C 7.25 -3.347656 7.21875 -4.15625 7.21875 -4.625 L 7.21875 -8.78125 L 8.890625 -8.78125 Z M 8.890625 0 "/></g></g></g><g fill="#ffffff" fill-opacity="1"><g transform="translate(73.261508, 18.492478)"><g><path d="M 2.9375 0 L 1.109375 0 L 1.109375 -8.78125 L 6.140625 -8.78125 L 6.140625 -7.25 L 2.9375 -7.25 L 2.9375 -4.984375 L 5.921875 -4.984375 L 5.921875 -3.46875 L 2.9375 -3.46875 Z M 2.9375 0 "/></g></g></g><g fill="#ffffff" fill-opacity="1"><g transform="translate(80.005304, 18.492478)"><g><path d="M 1.109375 0 L 1.109375 -8.78125 L 2.96875 -8.78125 L 2.96875 0 Z M 1.109375 0 "/></g></g></g><g fill="#ffffff" fill-opacity="1"><g transform="translate(84.073181, 18.492478)"><g><path d="M 8.890625 0 L 6.53125 0 L 2.703125 -6.640625 L 2.65625 -6.640625 C 2.726562 -5.460938 2.765625 -4.625 2.765625 -4.125 L 2.765625 0 L 1.109375 0 L 1.109375 -8.78125 L 3.453125 -8.78125 L 7.265625 -2.203125 L 7.3125 -2.203125 C 7.25 -3.347656 7.21875 -4.15625 7.21875 -4.625 L 7.21875 -8.78125 L 8.890625 -8.78125 Z M 8.890625 0 "/></g></g></g><g fill="#ffffff" fill-opacity="1"><g transform="translate(94.062896, 18.492478)"><g><path d="M 1.109375 0 L 1.109375 -8.78125 L 2.96875 -8.78125 L 2.96875 0 Z M 1.109375 0 "/></g></g></g><g fill="#ffffff" fill-opacity="1"><g transform="translate(98.130773, 18.492478)"><g><path d="M 8.203125 0 L 6.078125 0 L 4.03125 -3.328125 L 2 0 L 0 0 L 2.90625 -4.53125 L 0.1875 -8.78125 L 2.234375 -8.78125 L 4.125 -5.625 L 5.984375 -8.78125 L 7.984375 -8.78125 L 5.234375 -4.421875 Z M 8.203125 0 "/></g></g></g></svg>