<svg xmlns="http://www.w3.org/2000/svg" xmlns:xlink="http://www.w3.org/1999/xlink" width="80" zoomAndPan="magnify" viewBox="0 0 60 60" height="80" preserveAspectRatio="xMidYMid meet" version="1.0"><defs><clipPath id="0906d3cc5c"><path d="M 6 12.875 L 19 12.875 L 19 26 L 6 26 Z M 6 12.875 " clip-rule="nonzero"/></clipPath><clipPath id="69cbe16c20"><path d="M 1.636719 27 L 23 27 L 23 40 L 1.636719 40 Z M 1.636719 27 " clip-rule="nonzero"/></clipPath><clipPath id="9e375537da"><path d="M 41 12.875 L 54 12.875 L 54 26 L 41 26 Z M 41 12.875 " clip-rule="nonzero"/></clipPath><clipPath id="5e3311f52b"><path d="M 37.125 27.390625 L 58.328125 27.390625 L 58.328125 39.878906 L 37.125 39.878906 Z M 37.125 27.390625 " clip-rule="nonzero"/></clipPath><clipPath id="8e87ac7463"><path d="M 16.550781 31.980469 L 43.371094 31.980469 L 43.371094 47.117188 L 16.550781 47.117188 Z M 16.550781 31.980469 " clip-rule="nonzero"/></clipPath></defs><path fill="#ffffff" d="M 30 29.683594 C 34.316406 29.683594 37.816406 26.183594 37.816406 21.867188 C 37.816406 17.546875 34.316406 14.046875 30 14.046875 C 25.683594 14.046875 22.183594 17.546875 22.183594 21.867188 C 22.183594 26.183594 25.683594 29.683594 30 29.683594 " fill-opacity="1" fill-rule="nonzero"/><g clip-path="url(#0906d3cc5c)"><path fill="#ffffff" d="M 12.496094 25.566406 C 16.003906 25.566406 18.84375 22.726562 18.84375 19.21875 C 18.84375 15.714844 16.003906 12.875 12.496094 12.875 C 8.992188 12.875 6.152344 15.714844 6.152344 19.21875 C 6.152344 22.726562 8.992188 25.566406 12.496094 25.566406 " fill-opacity="1" fill-rule="nonzero"/></g><g clip-path="url(#69cbe16c20)"><path fill="#ffffff" d="M 22.757812 30.398438 C 21.878906 28.644531 20.066406 27.433594 17.964844 27.433594 L 7.027344 27.433594 C 4.070312 27.433594 1.671875 29.832031 1.671875 32.789062 L 1.671875 36.023438 C 4.664062 38.339844 8.417969 39.71875 12.496094 39.71875 C 13.367188 39.71875 14.21875 39.652344 15.054688 39.53125 L 15.054688 38.582031 C 15.054688 34.226562 18.464844 30.664062 22.757812 30.398438 " fill-opacity="1" fill-rule="nonzero"/></g><g clip-path="url(#9e375537da)"><path fill="#ffffff" d="M 47.5 25.566406 C 51.003906 25.566406 53.847656 22.726562 53.847656 19.21875 C 53.847656 15.714844 51.003906 12.875 47.5 12.875 C 43.996094 12.875 41.15625 15.714844 41.15625 19.21875 C 41.15625 22.726562 43.996094 25.566406 47.5 25.566406 " fill-opacity="1" fill-rule="nonzero"/></g><g clip-path="url(#5e3311f52b)"><path fill="#ffffff" d="M 52.96875 27.433594 L 42.03125 27.433594 C 39.933594 27.433594 38.121094 28.644531 37.242188 30.398438 C 41.53125 30.664062 44.945312 34.226562 44.945312 38.582031 L 44.945312 39.53125 C 45.78125 39.652344 46.632812 39.71875 47.5 39.71875 C 51.578125 39.71875 55.332031 38.339844 58.328125 36.023438 L 58.328125 32.789062 C 58.328125 29.832031 55.929688 27.433594 52.96875 27.433594 " fill-opacity="1" fill-rule="nonzero"/></g><g clip-path="url(#8e87ac7463)"><path fill="#ffffff" d="M 36.738281 31.980469 L 23.261719 31.980469 C 19.617188 31.980469 16.660156 34.9375 16.660156 38.582031 L 16.660156 42.566406 C 20.351562 45.417969 24.976562 47.117188 30 47.117188 C 35.023438 47.117188 39.648438 45.417969 43.339844 42.566406 L 43.339844 38.582031 C 43.339844 34.9375 40.382812 31.980469 36.738281 31.980469 " fill-opacity="1" fill-rule="nonzero"/></g></svg>